# xmcd CD database file
#
# Track frame offsets:
#	150
#	22768
#	49207
#	78567
#	107561
#	136642
#	161347
#	181884
#
# Disc length: 2887 seconds
#
# Revision: 0
# Processed by: cddbd v1.5.2PL0 Copyright (c) Steve Scherf et al.
# Submitted via: CDex 1.50
#
DISCID=530b4508
DTITLE=Guillaume Naud - My Name is Naud
DYEAR=2007
DGENRE=Jazz
TTITLE0=Quadrature
TTITLE1=Phase a soi
TTITLE2=Questions
TTITLE3=Le Mur de Planck
TTITLE4=Pusan
TTITLE5=Toys
TTITLE6=Ugly Beauty
TTITLE7=My name is Naud
EXTD=YEAR: 2007
EXTT0=
EXTT1=
EXTT2=
EXTT3=
EXTT4=
EXTT5=
EXTT6=
EXTT7=
PLAYORDER=
